:SAMPLES-PER-SECOND 30
:FULLY-SPECIFIED
:DEGREES
426
root  4.50795 36.5282 -0.176696 -55.4472 -85.2763 57.7583
RightUpLeg  -18.539 -11.526 -27.8109
RightLeg  18.032 0.61683 0.0167384
RightFoot  5.01052 -4.25354 29.2488
RightToes  -2.32832e-010 0 -3.6325e-017
Spine  21.3105 5.72815 7.4872
Spine1  1.22057 7.50202 -0.954911
HEad  -27.9239 -19.7183 -9.60472
LeftShoulder1  1.71798 -3.42498 -18.2114
LeftArm  -10.7087 33.4446 -41.973
LeftForeArm  24.1093 2.96088 -12.6529
LeftHand  -1.0927 -0.409345 21.8464
RightShoulder  0.973408 1.34797 13.1345
RightArm  -56.5376 28.1623 21.5182
RightForeArm  -53.5771 15.2215 -0.77609
RightHand  -0.578387 2.70209 -8.50522
LeftUpLeg  -11.7976 10.3001 20.7199
LeftLeg  17.9534 4.65325 2.18546
LeftFoot  -0.733454 2.806 -29.5685
LeftToes  2.2737e-010 4.38529e-011 2.18788e-011
427
root  4.62068 36.5406 0.182673 -73.5045 -80.9968 75.8235
RightUpLeg  -18.5518 -10.9388 -33.6086
RightLeg  17.5965 0.296574 -0.10076
RightFoot  5.51873 -4.33077 28.9034
RightToes  -2.32832e-010 0 -3.6325e-017
Spine  21.6124 5.32141 7.53515
Spine1  1.9246 8.32706 -7.29479
HEad  -28.2148 -22.5087 -8.12877
LeftShoulder1  1.69396 -3.40451 -17.9162
LeftArm  -10.4087 33.0728 -40.0373
LeftForeArm  21.4274 3.17543 -12.5537
LeftHand  -1.09268 -0.27594 22.3439
RightShoulder  0.985646 1.55495 12.4866
RightArm  -58.3771 27.3803 22.9294
RightForeArm  -53.6288 16.2589 -0.293672
RightHand  -0.635299 2.29665 -9.78949
LeftUpLeg  -11.1642 11.5142 14.8482
LeftLeg  16.7401 4.24532 2.03661
LeftFoot  -0.207059 2.91305 -29.2776
LeftToes  2.2737e-010 4.38529e-011 2.18788e-011
428
root  4.76806 36.3525 0.614143 -79.6499 -75.9713 82.6036
RightUpLeg  -20.1003 -11.6446 -39.9226
RightLeg  18.4725 1.20852 0.249866
RightFoot  5.58293 -4.31314 28.6882
RightToes  -2.32832e-010 0 -3.6325e-017
Spine  22.9108 4.68807 8.06565
Spine1  -0.273072 9.16532 -15.5122
HEad  -26.6637 -25.3027 -6.55342
LeftShoulder1  1.59561 -3.19094 -17.1587
LeftArm  -10.1798 33.4709 -36.8869
LeftForeArm  18.095 3.72959 -12.2222
LeftHand  -1.01209 0.447233 23.6838
RightShoulder  1.11018 2.16187 12.5978
RightArm  -57.1602 26.5057 23.3367
RightForeArm  -57.5324 16.0958 -0.483841
RightHand  -0.758839 1.65683 -12.6258
LeftUpLeg  -11.9235 12.9302 8.78379
LeftLeg  17.2396 3.70476 1.24783
LeftFoot  -0.731813 2.76928 -29.1902
LeftToes  2.2737e-010 4.38529e-011 2.18788e-011
429
root  4.93905 35.9582 0.92922 -86.0832 -71.5707 89.7109
RightUpLeg  -23.5109 -12.3423 -45.1049
RightLeg  21.0788 2.99465 1.07755
RightFoot  5.07469 -4.11912 28.259
RightToes  -2.32832e-010 0 -3.6325e-017
Spine  24.2766 4.70085 7.94684
Spine1  -2.15311 10.2309 -22.6244
HEad  -26.0654 -27.5828 -5.11945
LeftShoulder1  1.35115 -2.20737 -16.9985
LeftArm  -10.6688 33.2226 -33.3805
LeftForeArm  14.3425 4.04574 -11.5432
LeftHand  -0.839519 1.56563 25.2971
RightShoulder  1.21447 2.65715 12.7341
RightArm  -54.1144 27.7634 22.4648
RightForeArm  -63.2437 14.3739 -1.65932
RightHand  -0.915582 1.19272 -16.2136
LeftUpLeg  -13.0305 16.1717 3.94426
LeftLeg  19.0976 1.7128 0.0813358
LeftFoot  -2.24161 2.43471 -29.8166
LeftToes  2.2737e-010 4.38529e-011 2.18788e-011
430
root  5.14243 35.4938 0.952047 -93.8962 -69.0738 97.3559
RightUpLeg  -27.6482 -12.0658 -47.324
RightLeg  24.819 4.9784 2.30231
RightFoot  4.11205 -3.79506 27.6735
RightToes  -2.32832e-010 0 -3.6325e-017
Spine  25.415 5.34869 7.29307
Spine1  -1.12825 11.7963 -26.3196
HEad  -28.7421 -28.6967 -3.88501
LeftShoulder1  1.0522 -0.764409 -18.0553
LeftArm  -11.9768 31.4112 -31.0867
LeftForeArm  9.20972 3.78907 -10.8009
LeftHand  -0.645848 2.56072 26.2358
RightShoulder  1.17886 2.74079 11.7983
RightArm  -53.4864 31.2489 21.7557
RightForeArm  -65.4473 12.863 -2.55928
RightHand  -1.01472 0.659018 -19.4858
LeftUpLeg  -13.4322 20.7693 1.99395
LeftLeg  21.701 -1.3453 -0.813083
LeftFoot  -3.98093 2.07474 -31.1696
LeftToes  2.2737e-010 4.38529e-011 2.18788e-011
431
root  5.40402 35.1771 0.653405 -99.1775 -70.2345 101.856
RightUpLeg  -30.1786 -11.7827 -45.092
RightLeg  28.2342 6.23027 3.39261
RightFoot  3.05212 -3.51199 27.4864
RightToes  -2.32832e-010 0 -3.6325e-017
Spine  26.547 5.94687 7.46108
Spine1  1.13868 12.9479 -25.3541
HEad  -32.9604 -28.6858 -3.20478
LeftShoulder1  0.899971 -0.00141895 -19.1013
LeftArm  -13.1098 29.3753 -31.3535
LeftForeArm  4.94899 3.5369 -10.4975
LeftHand  -0.579653 2.89331 26.6745
RightShoulder  1.11022 2.7954 10.4103
RightArm  -55.9365 34.3879 21.6195
RightForeArm  -63.1065 13.2194 -2.54026
RightHand  -0.989354 -0.019841 -21.2941
LeftUpLeg  -13.9293 21.7059 4.38047
LeftLeg  24.6269 -1.98551 -0.56602
LeftFoot  -5.05947 1.8507 -32.3385
LeftToes  2.2737e-010 4.38529e-011 2.18788e-011
